<?xml version="1.0" encoding="utf-8"?>
<!-- Generator: Adobe Illustrator 16.0.0, SVG Export Plug-In . SVG Version: 6.00 Build 0)  -->
<!DOCTYPE svg PUBLIC "-//W3C//DTD SVG 1.1//EN" "http://www.w3.org/Graphics/SVG/1.1/DTD/svg11.dtd">
<svg version="1.1" id="Layer_1" xmlns="http://www.w3.org/2000/svg" xmlns:xlink="http://www.w3.org/1999/xlink" x="0px" y="0px"
	 width="300px" height="300px" viewBox="0 0 300 300" enable-background="new 0 0 300 300" xml:space="preserve">
<g>
	<path fill="#7DC354" d="M150,20C78.204,20,20,78.204,20,150c0,71.797,58.204,130,130,130c71.797,0,130-58.203,130-130
		C280,78.204,221.797,20,150,20z M150,270.714c-66.562,0-120.714-54.152-120.714-120.714C29.286,83.438,83.438,29.286,150,29.286
		c66.562,0,120.714,54.152,120.714,120.714C270.714,216.562,216.562,270.714,150,270.714z"/>
	<polygon fill="#7DC354" points="211.718,81.717 153.282,140.151 119.423,106.291 106.291,119.423 140.151,153.282 128.146,165.289 
		134.711,171.854 146.716,159.848 162.006,175.137 175.137,162.006 159.848,146.716 218.282,88.283 	"/>
</g>
</svg>
